<?xml version="1.0" encoding="utf-8"?>
<!-- Generator: Adobe Illustrator 27.5.0, SVG Export Plug-In . SVG Version: 6.00 Build 0)  -->
<svg version="1.1" id="Capa_1" xmlns="http://www.w3.org/2000/svg" xmlns:xlink="http://www.w3.org/1999/xlink" x="0px" y="0px"
	 viewBox="0 0 425.2 425.2" style="enable-background:new 0 0 425.2 425.2;" xml:space="preserve">
<g>
	<rect x="0.001" y="0.001" style="fill:#CCC8AE;" width="425.198" height="425.198"/>
	<rect x="0.001" y="317" style="fill:#AEAB96;" width="425.198" height="108.199"/>
</g>
<path style="fill:#D1D3D4;" d="M407.94,357.827l-95.506-65.287H182.282l53.194,44.264c-10.811-1.038-23.307-1.634-36.634-1.634
	c-40.979,0-74.199,5.605-74.199,12.52c0,6.914,33.22,12.517,74.199,12.517c23.989,0,45.305-1.922,58.868-4.901l3.031,2.522H407.94z"
	/>
<g>
	<g>
		<g>
			<path style="fill:#00B8B4;" d="M374.552,331.024l-71.109-39.478c0,0-7.9-5.123-15.543-5.052h-90.538c0,0-4.247,1.264-4.079,7.092
				c0,0-0.583,5.149,4.079,8.063l73.225,47.779h103.965V331.024z"/>
			<path style="fill:#D1D3D4;" d="M274.615,340.972c0.284-3.653,3.206-5.809,6.573-6.621c4.421-1.067,9.178-1.175,13.706-1.253
				c4.654-0.08,9.305,0.019,13.958,0.075c6.434,0.078,13.247,0.367,19.633-0.691c2.528-0.419,5.57-1.175,7.135-3.412
				c1.652-2.361,1.353-5.649,0.145-8.15c-3.372-6.989-11.775-10.933-18.309-14.32c-8.938-4.634-18.019-9.417-27.657-12.437
				c-5.014-1.572-10.15-2.642-15.312-3.584c-4.689-0.855-9.544-1.735-13.748-4.084h27.16c7.643-0.071,15.543,5.052,15.543,5.052
				l71.109,39.478v18.405h-96.395C275.943,347.214,274.372,344.103,274.615,340.972z"/>
			<path style="fill:#D1D3D4;" d="M270.586,349.43l-73.225-47.779c-4.663-2.914-4.079-8.063-4.079-8.063
				c-0.167-5.828,4.473-7.092,4.473-7.092l78.221,48.816C275.976,335.311,268.815,337.373,270.586,349.43z"/>
			<path style="fill:#61C4B5;" d="M264.895,340.505c0,5.473,4.437,9.908,9.91,9.908h96.368c5.472,0,9.907-4.435,9.907-9.908l0,0
				c0-5.473-4.435-9.909-9.907-9.909h-96.368C269.332,330.596,264.895,335.032,264.895,340.505L264.895,340.505z"/>
			<path style="fill:#D1D3D4;" d="M278.667,339.591c0.108-1.639,0.619-3.434,4.841-3.895h97.174
				c0.254,1.646,0.397,3.384,0.397,5.186c0,1.225-0.066,2.42-0.187,3.578h-97.868C278.65,343.732,278.555,341.267,278.667,339.591z"
				/>
			<g>
				
					<rect x="250.996" y="279.903" transform="matrix(0.5343 -0.8453 0.8453 0.5343 -144.1389 357.7647)" style="fill:#FFFFFF;" width="3.219" height="59.575"/>
			</g>
		</g>
		<g>
			<path style="fill:none;" d="M264.895,340.505c0,5.473,4.437,9.908,9.91,9.908h96.368c5.472,0,9.907-4.435,9.907-9.908l0,0
				c0-5.473-4.435-9.909-9.907-9.909h-96.368C269.332,330.596,264.895,335.032,264.895,340.505L264.895,340.505z"/>
			<path style="fill:none;" d="M193.282,293.587c-0.167-5.828,4.079-7.092,4.079-7.092h90.538
				c7.643-0.071,15.543,5.052,15.543,5.052l71.109,39.478v0.178c-1.056-0.386-2.192-0.607-3.38-0.607h-96.368
				c-5.473,0-9.91,4.436-9.91,9.909c0,2.925,1.274,5.544,3.29,7.358l-70.823-46.213
				C192.699,298.736,193.282,293.587,193.282,293.587z"/>
			<path style="fill:none;" d="M193.282,293.587c-0.167-5.828,4.473-7.092,4.473-7.092l72.47,45.228
				c-3.165,1.654-5.33,4.964-5.33,8.782c0,2.925,1.274,5.544,3.29,7.358l-70.823-46.213
				C192.699,298.736,193.282,293.587,193.282,293.587z"/>
		</g>
		<line style="fill:none;" x1="381.079" y1="340.505" x2="281.7" y2="340.505"/>
	</g>
	<g>
		<g>
			<path style="fill:#EC524F;" d="M374.552,305.019l-71.109-39.478c0,0-7.9-5.122-15.543-5.052h-90.538c0,0-4.247,1.264-4.079,7.093
				c0,0-0.583,5.148,4.079,8.063l73.225,47.78h103.965V305.019z"/>
			<path style="fill:#D1D3D4;" d="M274.615,314.967c0.284-3.654,3.206-5.809,6.573-6.622c4.421-1.067,9.178-1.174,13.706-1.253
				c4.654-0.08,9.305,0.019,13.958,0.075c6.434,0.078,13.247,0.368,19.633-0.689c2.528-0.419,5.57-1.176,7.135-3.413
				c1.652-2.361,1.353-5.648,0.145-8.149c-3.372-6.989-11.775-10.934-18.309-14.32c-8.938-4.634-18.019-9.418-27.657-12.438
				c-5.014-1.572-10.15-2.641-15.312-3.584c-4.689-0.854-9.544-1.735-13.748-4.084h27.16c7.643-0.07,15.543,5.052,15.543,5.052
				l71.109,39.478v18.406h-96.395C275.943,321.208,274.372,318.099,274.615,314.967z"/>
			<path style="fill:#D1D3D4;" d="M270.586,323.425l-73.225-47.78c-4.663-2.914-4.079-8.063-4.079-8.063
				c-0.167-5.829,4.473-7.093,4.473-7.093l78.221,48.817C275.976,309.307,268.815,311.367,270.586,323.425z"/>
			<path style="fill:#EF6E66;" d="M264.895,314.5c0,5.472,4.437,9.908,9.91,9.908h96.368c5.472,0,9.907-4.436,9.907-9.908l0,0
				c0-5.473-4.435-9.91-9.907-9.91h-96.368C269.332,304.59,264.895,309.027,264.895,314.5L264.895,314.5z"/>
			<path style="fill:#D1D3D4;" d="M278.667,313.585c0.108-1.64,0.619-3.434,4.841-3.895h97.174c0.254,1.647,0.397,3.385,0.397,5.186
				c0,1.225-0.066,2.419-0.187,3.578h-97.868C278.65,317.728,278.555,315.261,278.667,313.585z"/>
			<g>
				
					<rect x="249.19" y="252.661" transform="matrix(0.5346 -0.8451 0.8451 0.5346 -121.9758 343.4043)" style="fill:#FFFFFF;" width="3.22" height="59.574"/>
			</g>
		</g>
		<g>
			<path style="fill:none;" d="M264.895,314.5c0,5.472,4.437,9.908,9.91,9.908h96.368c5.472,0,9.907-4.436,9.907-9.908l0,0
				c0-5.473-4.435-9.91-9.907-9.91h-96.368C269.332,304.59,264.895,309.027,264.895,314.5L264.895,314.5z"/>
			<path style="fill:none;" d="M193.282,267.582c-0.167-5.829,4.079-7.093,4.079-7.093h90.538c7.643-0.07,15.543,5.052,15.543,5.052
				l71.109,39.478v0.177c-1.056-0.384-2.192-0.605-3.38-0.605h-96.368c-5.473,0-9.91,4.438-9.91,9.91
				c0,2.924,1.274,5.544,3.29,7.357l-70.823-46.213C192.699,272.73,193.282,267.582,193.282,267.582z"/>
			<path style="fill:none;" d="M193.282,267.582c-0.167-5.829,4.473-7.093,4.473-7.093l72.47,45.229
				c-3.165,1.653-5.33,4.963-5.33,8.782c0,2.924,1.274,5.544,3.29,7.357l-70.823-46.213
				C192.699,272.73,193.282,267.582,193.282,267.582z"/>
		</g>
		<line style="fill:none;" x1="381.079" y1="314.5" x2="281.7" y2="314.5"/>
	</g>
	<g>
		<g>
			<path style="fill:#EEBB46;" d="M374.552,279.013l-71.109-39.477c0,0-7.9-5.123-15.543-5.052h-90.538c0,0-4.247,1.263-4.079,7.092
				c0,0-0.583,5.148,4.079,8.063l73.225,47.779h103.965V279.013z"/>
			<path style="fill:#D1D3D4;" d="M274.615,288.962c0.284-3.654,3.206-5.809,6.573-6.622c4.421-1.068,9.178-1.175,13.706-1.253
				c4.654-0.08,9.305,0.019,13.958,0.075c6.434,0.078,13.247,0.367,19.633-0.69c2.528-0.419,5.57-1.175,7.135-3.412
				c1.652-2.361,1.353-5.648,0.145-8.149c-3.372-6.99-11.775-10.934-18.309-14.321c-8.938-4.633-18.019-9.416-27.657-12.438
				c-5.014-1.571-10.15-2.641-15.312-3.582c-4.689-0.856-9.544-1.737-13.748-4.085h27.16c7.643-0.071,15.543,5.052,15.543,5.052
				l71.109,39.477v18.406h-96.395C275.943,295.202,274.372,292.093,274.615,288.962z"/>
			<path style="fill:#D1D3D4;" d="M270.586,297.419l-73.225-47.779c-4.663-2.915-4.079-8.063-4.079-8.063
				c-0.167-5.829,4.473-7.092,4.473-7.092l78.221,48.816C275.976,283.301,268.815,285.362,270.586,297.419z"/>
			<path style="fill:#ECC360;" d="M264.895,288.494c0,5.473,4.437,9.909,9.91,9.909h96.368c5.472,0,9.907-4.436,9.907-9.909l0,0
				c0-5.473-4.435-9.909-9.907-9.909h-96.368C269.332,278.585,264.895,283.022,264.895,288.494L264.895,288.494z"/>
			<path style="fill:#D1D3D4;" d="M278.667,287.579c0.108-1.639,0.619-3.434,4.841-3.895h97.174
				c0.254,1.646,0.397,3.384,0.397,5.186c0,1.225-0.066,2.418-0.187,3.578h-97.868C278.65,291.722,278.555,289.256,278.667,287.579z
				"/>
			<g>
				
					<rect x="246.329" y="226.655" transform="matrix(0.5343 -0.8453 0.8453 0.5343 -101.3043 329.0083)" style="fill:#FFFFFF;" width="3.22" height="59.575"/>
			</g>
		</g>
		<g>
			<path style="fill:none;" d="M264.895,288.494c0,5.473,4.437,9.909,9.91,9.909h96.368c5.472,0,9.907-4.436,9.907-9.909l0,0
				c0-5.473-4.435-9.909-9.907-9.909h-96.368C269.332,278.585,264.895,283.022,264.895,288.494L264.895,288.494z"/>
			<path style="fill:none;" d="M193.282,241.576c-0.167-5.829,4.079-7.092,4.079-7.092h90.538
				c7.643-0.071,15.543,5.052,15.543,5.052l71.109,39.477v0.178c-1.056-0.385-2.192-0.605-3.38-0.605h-96.368
				c-5.473,0-9.91,4.437-9.91,9.909c0,2.925,1.274,5.544,3.29,7.358l-70.823-46.213
				C192.699,246.725,193.282,241.576,193.282,241.576z"/>
			<path style="fill:none;" d="M193.282,241.576c-0.167-5.829,4.473-7.092,4.473-7.092l72.47,45.228
				c-3.165,1.654-5.33,4.964-5.33,8.782c0,2.925,1.274,5.544,3.29,7.358l-70.823-46.213
				C192.699,246.725,193.282,241.576,193.282,241.576z"/>
		</g>
		<line style="fill:none;" x1="381.079" y1="288.494" x2="281.7" y2="288.494"/>
	</g>
	<g>
		<g>
			<path style="fill:#95CB6E;" d="M374.552,253.008l-71.109-39.477c0,0-7.9-5.123-15.543-5.052h-90.538c0,0-4.247,1.263-4.079,7.092
				c0,0-0.583,5.148,4.079,8.063l73.225,47.78h103.965V253.008z"/>
			<path style="fill:#D1D3D4;" d="M274.615,262.956c0.284-3.654,3.206-5.809,6.573-6.622c4.421-1.067,9.178-1.174,13.706-1.253
				c4.654-0.08,9.305,0.02,13.958,0.075c6.434,0.078,13.247,0.368,19.633-0.689c2.528-0.419,5.57-1.176,7.135-3.413
				c1.652-2.361,1.353-5.647,0.145-8.149c-3.372-6.99-11.775-10.934-18.309-14.32c-8.938-4.633-18.019-9.417-27.657-12.438
				c-5.014-1.571-10.15-2.641-15.312-3.583c-4.689-0.857-9.544-1.736-13.748-4.085h27.16c7.643-0.071,15.543,5.052,15.543,5.052
				l71.109,39.477v18.406h-96.395C275.943,269.197,274.372,266.088,274.615,262.956z"/>
			<path style="fill:#D1D3D4;" d="M270.586,271.414l-73.225-47.78c-4.663-2.914-4.079-8.063-4.079-8.063
				c-0.167-5.829,4.473-7.092,4.473-7.092l78.221,48.817C275.976,257.296,268.815,259.357,270.586,271.414z"/>
			<path style="fill:#B9D76B;" d="M264.895,262.489c0,5.473,4.437,9.908,9.91,9.908h96.368c5.472,0,9.907-4.436,9.907-9.908l0,0
				c0-5.473-4.435-9.91-9.907-9.91h-96.368C269.332,252.579,264.895,257.017,264.895,262.489L264.895,262.489z"/>
			<path style="fill:#D1D3D4;" d="M278.667,261.574c0.108-1.64,0.619-3.434,4.841-3.895h97.174c0.254,1.647,0.397,3.385,0.397,5.186
				c0,1.225-0.066,2.419-0.187,3.579h-97.868C278.65,265.717,278.555,263.25,278.667,261.574z"/>
		</g>
		<g>
			<path style="fill:none;" d="M264.895,262.489c0,5.473,4.437,9.908,9.91,9.908h96.368c5.472,0,9.907-4.436,9.907-9.908l0,0
				c0-5.473-4.435-9.91-9.907-9.91h-96.368C269.332,252.579,264.895,257.017,264.895,262.489L264.895,262.489z"/>
			<path style="fill:none;" d="M193.282,215.571c-0.167-5.829,4.079-7.092,4.079-7.092h90.538
				c7.643-0.071,15.543,5.052,15.543,5.052l71.109,39.477v0.177c-1.056-0.384-2.192-0.605-3.38-0.605h-96.368
				c-5.473,0-9.91,4.438-9.91,9.91c0,2.924,1.274,5.544,3.29,7.357l-70.823-46.213C192.699,220.72,193.282,215.571,193.282,215.571z
				"/>
			<path style="fill:none;" d="M193.282,215.571c-0.167-5.829,4.473-7.092,4.473-7.092l72.47,45.228
				c-3.165,1.653-5.33,4.963-5.33,8.782c0,2.924,1.274,5.544,3.29,7.357l-70.823-46.213
				C192.699,220.72,193.282,215.571,193.282,215.571z"/>
		</g>
		<line style="fill:none;" x1="381.079" y1="262.489" x2="281.7" y2="262.489"/>
		<g>
			
				<rect x="249.19" y="200.346" transform="matrix(0.5347 -0.845 0.845 0.5347 -77.7791 319.0024)" style="fill:#FFFFFF;" width="3.22" height="59.574"/>
		</g>
	</g>
</g>
<g>
	<g>
		<path style="fill:#00B9C5;" d="M214.999,297.948c0,3.815-3.092,6.909-6.908,6.909h-97.455c-3.816,0-6.909-3.094-6.909-6.909
			V178.433c0-3.815,3.093-6.909,6.909-6.909h97.455c3.816,0,6.908,3.094,6.908,6.909V297.948z"/>
		<path style="fill:#00B9C5;" d="M214.999,297.948c0,3.815-3.092,6.909-6.908,6.909h-97.455c-3.816,0-6.909-3.094-6.909-6.909
			V178.433c0-3.815,3.093-6.909,6.909-6.909h97.455c3.816,0,6.908,3.094,6.908,6.909V297.948z"/>
		<path style="fill:#00A8D9;" d="M125.772,290.853c-3.816,0-6.908-3.094-6.908-6.909V171.523h-8.228
			c-3.816,0-6.909,3.094-6.909,6.909v119.516c0,3.815,3.093,6.909,6.909,6.909h97.455c3.816,0,6.908-3.094,6.908-6.909v-7.095
			H125.772z"/>
		<rect x="149.923" y="171.523" style="fill:#21BEC6;" width="18.881" height="133.334"/>
		<rect x="131.864" y="156.69" style="fill:#00767F;" width="55" height="16.833"/>
		<path style="fill:none;" d="M214.999,297.948c0,3.815-3.092,6.909-6.908,6.909h-97.455c-3.816,0-6.909-3.094-6.909-6.909V178.433
			c0-3.815,3.093-6.909,6.909-6.909h97.455c3.816,0,6.908,3.094,6.908,6.909V297.948z"/>
		<polygon style="fill:#00A8D9;" points="199.471,180.17 186.606,165.22 159.41,171.342 131.887,165.107 118.887,179.94 
			144.27,205.137 159.218,180.223 173.864,205.137 		"/>
		<g>
			<circle style="fill:#FFFFFF;" cx="159.364" cy="195.52" r="3.5"/>
			<circle style="fill:#FFFFFF;" cx="159.364" cy="227.686" r="3.5"/>
			<circle style="fill:#FFFFFF;" cx="159.364" cy="259.853" r="3.5"/>
			<circle style="fill:#FFFFFF;" cx="159.364" cy="292.02" r="3.5"/>
		</g>
		<polygon style="fill:#00B9C5;" points="187.043,156.756 199.908,171.706 174.301,196.673 159.41,171.342 		"/>
		<polygon style="fill:#00B9C5;" points="131.864,156.69 118.864,171.523 144.246,196.72 159.364,171.523 		"/>
		<g>
			<rect x="204.132" y="191.44" style="fill:#FFFFFF;" width="3" height="93.5"/>
		</g>
	</g>
	<g>
		<path style="fill:#63BC46;" d="M234.667,322.443c0,3.816-3.093,6.91-6.909,6.91h-97.454c-3.816,0-6.909-3.094-6.909-6.91V202.929
			c0-3.816,3.093-6.909,6.909-6.909h97.454c3.817,0,6.909,3.093,6.909,6.909V322.443z"/>
		<path style="fill:#63BC46;" d="M234.667,322.443c0,3.816-3.093,6.91-6.909,6.91h-97.454c-3.816,0-6.909-3.094-6.909-6.91V202.929
			c0-3.816,3.093-6.909,6.909-6.909h97.454c3.817,0,6.909,3.093,6.909,6.909V322.443z"/>
		<path style="fill:#00A8D9;" d="M145.439,315.35c-3.816,0-6.908-3.094-6.908-6.91V196.02h-8.228c-3.816,0-6.909,3.093-6.909,6.909
			v119.514c0,3.816,3.093,6.91,6.909,6.91h97.454c3.817,0,6.909-3.094,6.909-6.91v-7.094H145.439z"/>
		<rect x="169.589" y="196.02" style="fill:#71C05F;" width="18.882" height="133.333"/>
		<rect x="151.531" y="181.186" style="fill:#2E8540;" width="55" height="16.834"/>
		<path style="fill:none;" d="M234.667,322.443c0,3.816-3.093,6.91-6.909,6.91h-97.454c-3.816,0-6.909-3.094-6.909-6.91V202.929
			c0-3.816,3.093-6.909,6.909-6.909h97.454c3.817,0,6.909,3.093,6.909,6.909V322.443z"/>
		<polygon style="fill:#00A8D9;" points="219.138,204.665 206.273,189.716 179.078,195.837 151.554,189.603 138.554,204.437 
			163.937,229.633 178.885,204.719 193.531,229.633 		"/>
		<g>
			<circle style="fill:#FFFFFF;" cx="179.031" cy="220.016" r="3.5"/>
			<circle style="fill:#FFFFFF;" cx="179.031" cy="252.184" r="3.5"/>
			<circle style="fill:#FFFFFF;" cx="179.031" cy="284.35" r="3.5"/>
			<circle style="fill:#FFFFFF;" cx="179.031" cy="316.516" r="3.5"/>
		</g>
		<polygon style="fill:#63BC46;" points="206.71,181.253 219.576,196.202 193.968,221.168 179.078,195.837 		"/>
		<polygon style="fill:#63BC46;" points="151.531,181.186 138.531,196.02 163.913,221.215 179.031,196.02 		"/>
		<g>
			<rect x="223.799" y="215.938" style="fill:#FFFFFF;" width="3" height="93.5"/>
		</g>
	</g>
	<g>
		<path style="fill:#DE6462;" d="M259.138,342.91c0,3.816-3.093,6.91-6.909,6.91h-97.454c-3.816,0-6.909-3.094-6.909-6.91V223.395
			c0-3.815,3.093-6.909,6.909-6.909h97.454c3.816,0,6.909,3.094,6.909,6.909V342.91z"/>
		<path style="fill:#DE6462;" d="M259.138,342.91c0,3.816-3.093,6.91-6.909,6.91h-97.454c-3.816,0-6.909-3.094-6.909-6.91V223.395
			c0-3.815,3.093-6.909,6.909-6.909h97.454c3.816,0,6.909,3.094,6.909,6.909V342.91z"/>
		<path style="fill:#D09274;" d="M169.91,335.815c-3.816,0-6.908-3.094-6.908-6.909V216.485h-8.228
			c-3.816,0-6.909,3.094-6.909,6.909V342.91c0,3.816,3.093,6.91,6.909,6.91h97.454c3.816,0,6.909-3.094,6.909-6.91v-7.095H169.91z"
			/>
		<rect x="194.061" y="216.485" style="fill:#CD6A69;" width="18.882" height="133.335"/>
		<rect x="176.003" y="201.652" style="fill:#7B292E;" width="55" height="16.833"/>
		<path style="fill:none;" d="M259.138,342.91c0,3.816-3.093,6.91-6.909,6.91h-97.454c-3.816,0-6.909-3.094-6.909-6.91V223.395
			c0-3.815,3.093-6.909,6.909-6.909h97.454c3.816,0,6.909,3.094,6.909,6.909V342.91z"/>
		<polygon style="fill:#D09274;" points="243.609,225.132 230.744,210.182 203.549,216.304 176.025,210.069 163.025,224.902 
			188.408,250.099 203.357,225.185 218.003,250.099 		"/>
		<g>
			<circle style="fill:#FFFFFF;" cx="203.503" cy="240.482" r="3.5"/>
			<circle style="fill:#FFFFFF;" cx="203.503" cy="272.648" r="3.5"/>
			<circle style="fill:#FFFFFF;" cx="203.503" cy="304.815" r="3.5"/>
			<path style="fill:#FFFFFF;" d="M207.003,336.982c0,1.934-1.568,3.501-3.5,3.501c-1.934,0-3.5-1.566-3.5-3.501
				c0-1.933,1.566-3.5,3.5-3.5C205.435,333.482,207.003,335.049,207.003,336.982z"/>
		</g>
		<polygon style="fill:#DE6462;" points="231.182,201.718 244.048,216.668 218.44,241.635 203.549,216.304 		"/>
		<polygon style="fill:#DE6462;" points="176.003,201.652 163.003,216.485 188.384,241.682 203.503,216.485 		"/>
		<g>
			<rect x="248.271" y="236.402" style="fill:#FFFFFF;" width="3" height="93.5"/>
		</g>
	</g>
</g>
<g>
	<path style="fill:#D1D3D4;" d="M153.309,351.303c0,5.744-27.465,10.398-61.346,10.398c-33.88,0-61.345-4.654-61.345-10.398
		c0-5.744,27.465-10.402,61.345-10.402C125.843,340.9,153.309,345.559,153.309,351.303z"/>
	<g>
		<path style="fill:none;stroke:#2D2932;stroke-width:1.4926;stroke-miterlimit:10;" d="M125.765,342.574
			c-5.563,24.361,41.676,0.256,48.823,16.875c4.508,10.486-36.116,2.1-45.834,2.219c-25.605,0.313-13.423,15.709,11.937,12.252
			c30.218-4.117,70.58-12.935,70.15,2.391c-1.99,6.564-24.22-7.871-30.996,3.172c-2.153,8.289,9.184,8.424,16.262,8.281
			c21.234-0.428,54.177-21.512,69.962-13.844"/>
		<g>
			<path style="fill:#939598;" d="M122.555,344.066v-10.158h6.252v10.158c0,0-1.059,1.252-3.403,1.133
				C123.061,345.084,122.555,344.066,122.555,344.066z"/>
			<rect x="36.66" y="153.754" style="fill:#BCBEC0;" width="7.503" height="142.795"/>
			<path style="fill:#A7A9AC;" d="M36.193,300.848c-1.167,0-2.113-1.408-2.113-3.146V152.993c0-1.737,0.946-3.146,2.113-3.146l0,0
				c1.164,0,2.11,1.409,2.11,3.146v144.708C38.303,299.44,37.357,300.848,36.193,300.848L36.193,300.848z"/>
			<path style="fill:#E6E7E8;" d="M121.305,337.111c2.476-0.822,4.609-1.016,6.319-0.928c2.982,0.154,6.107-0.246,7.285-3.529
				c1.178-3.285,13.36-64.01-4.07-104.338c-16.282-37.675-31.261-51.896-41.387-60.024c-10.123-8.129-32.922-16.615-38.724-18.445
				c-5.801-1.828-8.003-1.719-8.003,3.907c0,5.626,0,118.99,0,141.855c0,13.326,5.425,13.365,10.583,33.764
				c3.988,15.767,2.999,24.73,5.627,24.623C64.563,353.758,92.148,354.133,121.305,337.111z M109.537,316.908
				c-5.885-2.031-9.006-8.49-7.683-14.568c3.723-16.865,3.723-34.346,0-51.211c-1.323-6.078,1.798-12.538,7.683-14.566
				c5.868-2.029,12.653,2.245,14.296,9.711c4.431,20.064,4.431,40.859,0,60.92C122.19,314.66,115.401,318.938,109.537,316.908z"/>
			<path style="fill:#289FAA;" d="M52.369,266.066c-2.571-19.129-5.173-108.113-1.187-116.07c-0.144-0.048-0.327-0.108-0.454-0.15
				c-5.801-1.828-8.003-1.719-8.003,3.907v141.855c0,13.326,5.425,13.365,10.583,33.764c3.988,15.767,2.999,24.73,5.627,24.623
				c1.047-0.047,2.85-0.07,5.277-0.185C64.211,324.918,56.151,294.201,52.369,266.066z"/>
			<path style="fill:#289FAA;" d="M59.071,170.806c3.241,6.055,7.434,12.105,12.868,16.431c8.342,6.63,17.995,11.083,26.065,18.155
				c15.969,13.991,27.704,31.47,31.252,52.689c2.877,17.195,4.892,43.055-6.425,57.889c-4.629,6.072-12.65,11.392-19.641,14.228
				c-4.372,1.775-9.395,3.029-13.25,5.824c-4.15,3.01-7.09,9.705-5.856,15.279c10.756-2.225,23.817-6.367,37.221-14.19
				c2.476-0.822,4.609-1.016,6.319-0.928c2.982,0.154,6.107-0.246,7.285-3.529c1.178-3.285,13.36-64.01-4.07-104.338
				c-16.282-37.675-31.261-51.896-41.387-60.024c-8.04-6.457-24.053-13.127-33.219-16.518
				C56.034,158.271,55.958,164.986,59.071,170.806z"/>
			<g>
				<path style="fill:#C2C4C6;" d="M106.389,194.883c-1.822,2.08-6.017-2.518-6.79-8.163c-0.576-4.181,1.438-5.376,2.509-5.376
					c1.072,0,1.371,2.406,1.371,5.376C103.478,189.689,107.783,193.289,106.389,194.883z"/>
				<path style="fill:#B6B8BA;" d="M106.092,193.936c0,0-3.684-1.941-4.381-6.519c-0.698-4.58,0.943-4.232,0.943-4.232h9.856v10.751
					H106.092z"/>
				<path style="fill:#A1A3A6;" d="M112.51,191.677c-2.217,0.128-4.494-0.225-6.35-1.191c-2.827-1.471-3.944-3.983-4.251-6.879
					c-0.317,0.494-0.541,1.551-0.199,3.811c0.697,4.578,4.381,6.519,4.381,6.519h6.418V191.677z"/>
				<path style="fill:#C2C4C6;" d="M112.51,193.936c-1.072,0-1.942-2.407-1.942-5.376c0-2.968,0.87-5.375,1.942-5.375
					c1.074,0,1.941,2.408,1.941,5.375C114.451,191.53,113.584,193.936,112.51,193.936z"/>
				<path style="fill:#A22934;" d="M120.616,218.51c0,0-6.67-5.252-7.665-11.781c-0.995-6.531,3.549-6.671,3.549-6.671h6.103
					l5.608,17.884L120.616,218.51z"/>
				<path style="fill:#BF333F;" d="M128.212,217.941c-1.531,0-5.871-5.322-7.888-10.786c-1.467-3.972,0.75-7.098,2.279-7.098
					c1.526,0,2.888,3.21,5.608,8.303C130.206,212.095,129.738,217.941,128.212,217.941z"/>
			</g>
			<g>
				<path style="fill:#C7C8CA;" d="M101.738,293.502c-2.919,0-5.288-7.824-5.288-17.469c0-9.648,2.368-17.469,5.288-17.469
					c0.547,0,4.928,0,4.928,0s0.356,9.629,0.356,17.469c0,7.773-0.356,17.469-0.356,17.469S102.302,293.502,101.738,293.502z"/>
				<path style="fill:#E4E5E6;" d="M106.666,293.502c-2.919,0-5.285-7.824-5.285-17.469c0-9.648,2.366-17.469,5.285-17.469
					c2.921,0,5.286,7.82,5.286,17.469C111.952,285.678,109.587,293.502,106.666,293.502z"/>
				<g>
					<polygon style="fill:#A7A9AC;" points="114.271,276.541 109.103,261.143 107.404,261.143 106.666,262.098 107.404,276.541 
						113.533,277.496 					"/>
					<polygon style="fill:#C7C8CA;" points="113.533,277.496 108.368,262.098 106.666,262.098 106.666,277.496 					"/>
				</g>
			</g>
		</g>
		<g>
			<path style="fill:#2D2932;" d="M285.935,368.326l-12.667-2.627c-4.843-1.004-9.583,2.108-10.587,6.953l-0.203,0.973
				c-1.003,4.844,2.11,9.584,6.953,10.588l12.667,2.625L285.935,368.326z"/>
			<path style="fill:#2D2932;" d="M293.407,384.522c-0.239,1.141-1.69,1.807-3.246,1.484l-10.445-2.162
				c-1.556-0.324-2.624-1.514-2.388-2.656l0,0c0.238-1.145,1.689-1.81,3.246-1.488l10.445,2.166
				C292.574,382.19,293.643,383.375,293.407,384.522L293.407,384.522z"/>
			<path style="fill:#2D2932;" d="M295.078,376.453c-0.237,1.145-1.689,1.811-3.246,1.488l-10.443-2.166
				c-1.557-0.322-2.625-1.512-2.388-2.654l0,0c0.238-1.143,1.69-1.809,3.246-1.486l10.445,2.164
				C294.247,374.119,295.315,375.309,295.078,376.453L295.078,376.453z"/>
			
				<rect x="259.548" y="369.132" transform="matrix(0.2028 -0.9792 0.9792 0.2028 -156.0393 554.6165)" style="fill:#2D2932;" width="6.125" height="8.022"/>
		</g>
	</g>
</g>
</svg>
