<?xml version="1.0" encoding="utf-8"?>
<!-- Generator: Adobe Illustrator 27.5.0, SVG Export Plug-In . SVG Version: 6.00 Build 0)  -->
<svg version="1.1" id="Layer_1" xmlns="http://www.w3.org/2000/svg" xmlns:xlink="http://www.w3.org/1999/xlink" x="0px" y="0px"
	 viewBox="0 0 300 300" style="enable-background:new 0 0 300 300;" xml:space="preserve">
<g>
	<g>
		<path style="fill:#2B3990;" d="M150,32.053c-43.505,0-78.773,35.268-78.773,78.773c0,43.505,35.268,78.773,78.773,78.773
			s78.773-35.268,78.773-78.773C228.773,67.321,193.505,32.053,150,32.053z M150,177.219c-36.668,0-66.393-29.725-66.393-66.393
			S113.332,44.432,150,44.432s66.393,29.725,66.393,66.393S186.668,177.219,150,177.219z"/>
		<path style="fill:#00B1EF;" d="M209.68,110.826c0,32.96-26.72,59.68-59.68,59.68s-59.68-26.72-59.68-59.68
			c0-9.369,2.211-18.688,6.462-27.039c2.751-5.405,11.006-20.142,18.311-19.771c3.314,0.168,5.155,4.357,4.241,7.547
			c-0.913,3.19-3.575,5.516-6.06,7.715c-5.631,4.981-11.219,10.639-13.162,17.902c-0.466,1.742-0.686,3.686,0.163,5.276
			c0.849,1.591,3.12,2.493,4.54,1.382c0.032-3.221,0.69-6.435,1.926-9.41c0.898-2.162,2.161-4.265,4.094-5.586
			c1.933-1.321,4.648-1.691,6.613-0.418c2.776,1.8,2.911,5.974,1.477,8.955c-1.434,2.982-3.992,5.251-5.906,7.95
			c-4.318,6.088-4.967,14.846-0.793,21.033c4.174,6.187,13.285,8.774,19.697,4.954c2.327-1.386,4.173-3.434,6.263-5.158
			c4.095-3.377,9.203-5.509,14.483-6.046c1.749-0.178,3.548-0.18,5.229,0.335c1.75,0.536,3.279,1.602,4.838,2.56
			c6.247,3.84,13.582,6.161,20.896,5.638c7.314-0.523,14.545-4.114,18.653-10.188c3.724-5.507,4.631-12.435,4.72-19.082
			c-0.003,0.211,1.931,2.897,2.165,3.735C209.831,105.471,209.68,108.392,209.68,110.826z"/>
		<path style="fill:#00B1EF;" d="M209.68,110.826c0,32.96-26.72,59.68-59.68,59.68s-59.68-26.72-59.68-59.68
			c0-9.369,2.211-18.688,6.462-27.039c2.751-5.405,11.006-20.142,18.311-19.771c3.314,0.168,5.155,4.357,4.241,7.547
			c-0.913,3.19-3.575,5.516-6.06,7.715c-5.631,4.981-11.219,10.639-13.162,17.902c-0.466,1.742-0.686,3.686,0.163,5.276
			c0.849,1.591,3.12,2.493,4.54,1.382c0.032-3.221,0.69-6.435,1.926-9.41c0.898-2.162,2.161-4.265,4.094-5.586
			c1.933-1.321,4.648-1.691,6.613-0.418c2.776,1.8,2.911,5.974,1.477,8.955c-1.434,2.982-3.992,5.251-5.906,7.95
			c-4.318,6.088-4.967,14.846-0.793,21.033c4.174,6.187,13.285,8.774,19.697,4.954c2.327-1.386,4.173-3.434,6.263-5.158
			c4.095-3.377,9.203-5.509,14.483-6.046c1.749-0.178,3.548-0.18,5.229,0.335c1.75,0.536,3.279,1.602,4.838,2.56
			c6.247,3.84,13.582,6.161,20.896,5.638c7.314-0.523,14.545-4.114,18.653-10.188c3.724-5.507,4.631-12.435,4.72-19.082
			c-0.003,0.211,1.931,2.897,2.165,3.735C209.831,105.471,209.68,108.392,209.68,110.826z"/>
		<path style="fill:#EF4136;" d="M116.279,82.102c0.896,0.139,1.78,0.355,2.639,0.644c2.28,0.768,8.107,7.921,9.175,13.898
			c2.512-1.796,4.614-4.094,6.696-6.374c-0.084,8.682,4.387,17.367,2.19,25.767c-0.649,2.48-1.856,4.783-2.568,7.246
			c-0.397,1.374-0.63,2.774-0.743,4.185c1.568-1.229,2.978-2.675,4.52-3.947c4.095-3.377,9.203-5.509,14.483-6.046
			c1.749-0.178,3.548-0.18,5.229,0.335c1.75,0.536,3.279,1.602,4.838,2.56c5.962,3.664,12.915,5.94,19.895,5.686
			c-0.244-3.066-0.101-6.178,0.314-9.226c0.8-5.879,3.097-11.274,4.267-17.021c0.211-1.036,1.176-8.993,0.226-9.846
			c1.741,1.561,3.18,3.295,4.101,5.485c0.198,0.472,0.581,1.06,1.062,0.884c2.954-4.361,7.366-7.482,11.681-10.505
			c1.086-0.761-11.35-15.309-12.737-16.791c-3.005-3.209-7.205-5.029-11.601-5.029h-7.426c0,5.354-4.941,9.694-11.036,9.694
			c-6.095,0-11.036-4.34-11.036-9.694c0,0-7.424,0-7.426,0c-5.181,0-9.825,2.864-13.556,6.212c-0.721,0.647-1.502,1.086-2.281,1.628
			c-1.556,1.457-3.132,2.802-4.62,4.314c-1.591,1.618-3.144,3.278-4.871,4.753C117.225,81.316,116.752,81.709,116.279,82.102z"/>
		<path style="fill:#FFF37A;" d="M160.864,132.393c-2.113,0-3.826,1.713-3.826,3.826c0,2.113,1.713,3.826,3.826,3.826
			c2.113,0,3.826-1.713,3.826-3.826C164.69,134.106,162.977,132.393,160.864,132.393z M160.864,139.558
			c-0.082,0-0.163-0.004-0.243-0.01c1.73-0.125,3.096-1.567,3.096-3.329s-1.365-3.204-3.096-3.329
			c0.081-0.006,0.161-0.01,0.243-0.01c1.844,0,3.339,1.495,3.339,3.339S162.708,139.558,160.864,139.558z"/>
		<path style="fill:#FFF37A;" d="M147.183,124.741c-2.113,0-3.826,1.713-3.826,3.826c0,2.113,1.713,3.826,3.826,3.826
			c2.113,0,3.826-1.713,3.826-3.826C151.009,126.454,149.296,124.741,147.183,124.741z M147.183,131.906
			c-0.082,0-0.163-0.004-0.243-0.01c1.73-0.125,3.096-1.567,3.096-3.329s-1.365-3.204-3.096-3.329
			c0.081-0.006,0.161-0.01,0.243-0.01c1.844,0,3.339,1.495,3.339,3.339S149.027,131.906,147.183,131.906z"/>
		<path style="fill:#FFF37A;" d="M104.329,120.915c-2.113,0-3.826,1.713-3.826,3.826s1.713,3.826,3.826,3.826
			c2.113,0,3.826-1.713,3.826-3.826S106.442,120.915,104.329,120.915z M104.329,128.08c-0.082,0-0.163-0.004-0.243-0.01
			c1.73-0.125,3.096-1.567,3.096-3.329s-1.365-3.204-3.096-3.329c0.08-0.006,0.161-0.01,0.243-0.01c1.844,0,3.339,1.495,3.339,3.339
			S106.174,128.08,104.329,128.08z"/>
		<path style="fill:#FFF37A;" d="M175.885,136.134c-1.646,0-2.98,1.334-2.98,2.98s1.334,2.98,2.98,2.98
			c1.646,0,2.98-1.334,2.98-2.98S177.531,136.134,175.885,136.134z M175.885,141.715c-0.064,0-0.127-0.003-0.19-0.008
			c1.348-0.097,2.411-1.221,2.411-2.594s-1.064-2.496-2.411-2.594c0.063-0.005,0.126-0.008,0.19-0.008
			c1.437,0,2.601,1.165,2.601,2.601C178.487,140.551,177.322,141.715,175.885,141.715z"/>
		<path style="fill:#FFF37A;" d="M186.953,121.761c-1.646,0-2.98,1.334-2.98,2.98c0,1.646,1.334,2.98,2.98,2.98
			s2.98-1.334,2.98-2.98C189.934,123.095,188.599,121.761,186.953,121.761z M186.953,127.343c-0.064,0-0.127-0.003-0.19-0.008
			c1.348-0.097,2.411-1.221,2.411-2.593c0-1.373-1.064-2.496-2.411-2.593c0.063-0.005,0.126-0.008,0.19-0.008
			c1.437,0,2.601,1.165,2.601,2.601S188.39,127.343,186.953,127.343z"/>
		<path style="fill:#FFF37A;" d="M157.883,110.082c-1.646,0-2.98,1.334-2.98,2.98c0,1.646,1.334,2.98,2.98,2.98
			c1.646,0,2.98-1.334,2.98-2.98C160.864,111.417,159.529,110.082,157.883,110.082z M157.883,115.664
			c-0.064,0-0.127-0.003-0.19-0.008c1.348-0.097,2.411-1.221,2.411-2.593c0-1.373-1.064-2.496-2.411-2.593
			c0.063-0.005,0.126-0.008,0.19-0.008c1.437,0,2.601,1.164,2.601,2.601S159.32,115.664,157.883,115.664z"/>
		<path style="fill:#FFF37A;" d="M123.604,104.865c-1.646,0-2.98,1.334-2.98,2.98s1.334,2.98,2.98,2.98
			c1.646,0,2.98-1.334,2.98-2.98S125.25,104.865,123.604,104.865z M123.604,110.446c-0.064,0-0.127-0.003-0.19-0.008
			c1.348-0.097,2.411-1.221,2.411-2.593c0-1.373-1.064-2.496-2.411-2.594c0.063-0.005,0.126-0.008,0.19-0.008
			c1.437,0,2.601,1.165,2.601,2.601S125.041,110.446,123.604,110.446z"/>
		<path style="fill:#FFF37A;" d="M122.584,113.063c-3.978,0-7.203,3.225-7.203,7.203s3.225,7.203,7.203,7.203
			c3.978,0,7.203-3.225,7.203-7.203S126.562,113.063,122.584,113.063z M122.584,126.552c-0.154,0-0.307-0.007-0.458-0.018
			c3.258-0.235,5.828-2.951,5.828-6.268c0-3.318-2.57-6.033-5.828-6.268c0.152-0.011,0.304-0.018,0.458-0.018
			c3.472,0,6.286,2.815,6.286,6.286C128.87,123.738,126.055,126.552,122.584,126.552z"/>
		<path style="fill:#FFF37A;" d="M136.427,139.742c-2.71,0-4.906,2.197-4.906,4.906s2.197,4.906,4.906,4.906
			c2.709,0,4.906-2.197,4.906-4.906S139.136,139.742,136.427,139.742z M136.427,148.93c-0.105,0-0.209-0.005-0.312-0.013
			c2.219-0.16,3.969-2.009,3.969-4.269c0-2.259-1.751-4.109-3.969-4.269c0.103-0.008,0.207-0.013,0.312-0.013
			c2.365,0,4.282,1.917,4.282,4.282C140.708,147.013,138.791,148.93,136.427,148.93z"/>
		<path style="fill:#FFF37A;" d="M113.061,90.833c-2.71,0-4.906,2.196-4.906,4.906c0,2.71,2.196,4.906,4.906,4.906
			c2.709,0,4.906-2.196,4.906-4.906C117.967,93.03,115.771,90.833,113.061,90.833z M113.061,100.021
			c-0.105,0-0.209-0.005-0.312-0.012c2.219-0.16,3.969-2.01,3.969-4.269c0-2.259-1.751-4.109-3.969-4.269
			c0.103-0.007,0.207-0.013,0.312-0.013c2.365,0,4.282,1.917,4.282,4.282C117.343,98.104,115.426,100.021,113.061,100.021z"/>
		<path style="fill:#FFF37A;" d="M192.995,110.826c-2.709,0-4.906,2.196-4.906,4.906c0,2.71,2.197,4.906,4.906,4.906
			c2.71,0,4.906-2.197,4.906-4.906C197.901,113.022,195.705,110.826,192.995,110.826z M192.995,120.013
			c-0.105,0-0.209-0.005-0.312-0.012c2.219-0.16,3.969-2.009,3.969-4.269c0-2.259-1.751-4.109-3.969-4.269
			c0.103-0.007,0.207-0.012,0.312-0.012c2.365,0,4.282,1.917,4.282,4.281C197.277,118.096,195.36,120.013,192.995,120.013z"/>
		<path style="fill:#FFF37A;" d="M173.627,109.75c-2.71,0-4.906,2.196-4.906,4.906c0,2.709,2.197,4.906,4.906,4.906
			s4.906-2.197,4.906-4.906C178.533,111.946,176.336,109.75,173.627,109.75z M173.627,118.937c-0.105,0-0.209-0.005-0.312-0.013
			c2.219-0.16,3.969-2.009,3.969-4.269s-1.751-4.109-3.969-4.269c0.103-0.007,0.207-0.013,0.312-0.013
			c2.365,0,4.282,1.917,4.282,4.282S175.991,118.937,173.627,118.937z"/>
		<path style="fill:#FFF37A;" d="M147.93,102.538c-3.643,0-6.597,2.953-6.597,6.597c0,3.643,2.954,6.597,6.597,6.597
			c3.643,0,6.597-2.953,6.597-6.597C154.526,105.491,151.573,102.538,147.93,102.538z M147.93,114.892
			c-0.141,0-0.281-0.007-0.42-0.017c2.983-0.215,5.337-2.702,5.337-5.741c0-3.038-2.354-5.525-5.337-5.74
			c0.139-0.01,0.278-0.017,0.42-0.017c3.18,0,5.757,2.578,5.757,5.757C153.687,112.314,151.109,114.892,147.93,114.892z"/>
	</g>
	<g>
		<g>
			<path style="fill:#EF4136;" d="M49.021,243.84c-1.95-0.3-3.73-1.124-5.342-2.474c-1.613-1.349-2.418-3.112-2.418-5.285
				c0.299-1.124,0.805-2.005,1.518-2.643c0.712-0.636,1.499-1.105,2.361-1.406c0.861-0.299,1.743-0.487,2.643-0.562
				c0.9-0.074,1.761-0.149,2.586-0.225c1.873,0.151,3.692,0.32,5.454,0.506c1.761,0.188,3.503,0.432,5.229,0.731
				c1.349-1.799,2.53-3.711,3.542-5.735c1.012-2.024,1.929-4.085,2.755-6.185c1.124-3.223,2.249-6.334,3.373-9.334
				c1.125-2.998,2.137-5.66,3.036-7.984c0.9-2.323,1.648-4.178,2.249-5.566c0.599-1.386,0.9-2.117,0.9-2.193
				c0.299-0.749,0.599-1.536,0.9-2.361c0.45-1.423,0.748-2.66,0.899-3.711c0.225,0.076,0.675,0.244,1.35,0.506
				c0.675,0.263,1.367,0.638,2.08,1.125c0.712,0.488,1.367,1.068,1.968,1.743c0.599,0.675,0.9,1.501,0.9,2.474
				c0,0.3-0.02,0.638-0.056,1.012c-0.039,0.376-0.132,0.75-0.281,1.125c-1.125,2.474-2.269,5.155-3.43,8.04
				c-1.163,2.887-2.418,5.886-3.767,8.996c-1.35,3.112-2.85,6.297-4.498,9.558c-1.65,3.261-3.525,6.466-5.623,9.615
				c4.273,0.9,8.19,1.894,11.751,2.98c3.56,1.086,6.635,2.117,9.221,3.092c2.586,0.973,4.667,1.799,6.241,2.474
				c1.574,0.675,2.511,1.012,2.811,1.012l0.112-0.112l0.225,0.225c0.225,0.225,0.337,0.374,0.337,0.45
				c0,0.225-0.095,0.374-0.281,0.45c-0.188,0.074-0.357,0.112-0.506,0.112c-0.45,0-1.613-0.3-3.486-0.9
				c-1.875-0.601-4.236-1.332-7.085-2.193c-2.85-0.863-6.092-1.743-9.727-2.643c-3.637-0.9-7.478-1.687-11.526-2.361
				c-1.875,2.098-4.048,3.917-6.522,5.454c-2.474,1.536-5.136,2.305-7.984,2.305c-0.376,0-0.694,0-0.956,0
				C49.713,243.952,49.395,243.914,49.021,243.84z M58.692,235.294c-0.675-0.149-1.405-0.243-2.193-0.281
				c-0.787-0.037-1.594-0.056-2.418-0.056c-2.249,0-4.292,0.169-6.129,0.506c-1.838,0.337-2.755,0.77-2.755,1.293
				c0,0.076,0.149,0.244,0.45,0.506c0.299,0.264,0.675,0.523,1.124,0.787c0.45,0.262,0.973,0.506,1.574,0.731
				c0.599,0.225,1.199,0.338,1.799,0.338c1.349,0,2.792-0.338,4.329-1.012C56.011,237.43,57.416,236.494,58.692,235.294z"/>
			<path style="fill:#EF4136;" d="M111.206,225.173c-0.076,0.225-0.357,1.031-0.843,2.418c-0.488,1.388-1.181,2.831-2.081,4.33
				c-0.9,1.501-1.987,2.867-3.261,4.104c-1.275,1.237-2.737,1.856-4.386,1.856c-0.975,0-1.894-0.281-2.755-0.844
				c-0.863-0.562-1.706-1.743-2.53-3.542c-0.301,0.376-0.657,0.826-1.068,1.349c-0.413,0.525-0.938,1.012-1.574,1.462
				c-0.638,0.45-1.405,0.826-2.305,1.124c-0.9,0.299-1.987,0.45-3.261,0.45c-1.725,0-3.131-0.411-4.217-1.237
				c-1.088-0.824-1.931-1.817-2.53-2.98c-0.599-1.161-1.012-2.398-1.237-3.711c-0.225-1.311-0.337-2.418-0.337-3.318
				c0-1.873,0.394-3.917,1.181-6.129c0.787-2.21,1.892-4.273,3.317-6.185c1.423-1.912,3.149-3.504,5.173-4.779
				c2.024-1.274,4.273-1.912,6.747-1.912c1.499,0,2.623,0.188,3.373,0.562c0.749,0.376,1.536,0.787,2.362,1.237
				c0.225-0.45,0.431-0.9,0.619-1.349c0.186-0.45,0.318-0.824,0.394-1.124c0.074,0,0.374,0.169,0.9,0.506
				c0.524,0.337,1.105,0.787,1.743,1.349c0.636,0.562,1.218,1.181,1.743,1.855c0.523,0.675,0.787,1.313,0.787,1.912
				c0,0.376-0.076,0.863-0.225,1.462c-0.151,0.601-0.525,1.313-1.125,2.137c-1.349,2.4-2.662,4.987-3.936,7.759
				c-1.275,2.774-1.912,5.324-1.912,7.647c0,0.9,0.093,1.613,0.281,2.137c0.186,0.525,0.619,0.787,1.293,0.787
				c0.973,0,2.267-0.768,3.879-2.305c1.611-1.536,3.166-4.029,4.667-7.478l0.225-0.113c0.45,0,0.712,0.113,0.787,0.337
				C111.167,225.173,111.206,225.248,111.206,225.173z M94.9,231.695c-0.076-0.374-0.113-0.712-0.113-1.012c0-0.299,0-0.636,0-1.012
				c0-2.174,0.318-4.46,0.956-6.86c0.636-2.398,1.367-4.647,2.193-6.747c-0.601-0.599-1.125-1.049-1.574-1.349
				c-0.45-0.299-1.124-0.45-2.024-0.45c-1.35,0-2.699,0.413-4.048,1.237c-1.349,0.826-2.586,1.894-3.711,3.205
				c-1.124,1.313-2.043,2.774-2.755,4.386c-0.713,1.613-1.068,3.244-1.068,4.892c0,0.826,0.056,1.65,0.169,2.474
				c0.112,0.826,0.355,1.613,0.731,2.362c0.374,0.75,0.936,1.349,1.687,1.799c0.748,0.45,1.761,0.675,3.036,0.675
				c1.799,0,3.205-0.467,4.217-1.406C93.607,232.951,94.375,232.22,94.9,231.695z"/>
			<path style="fill:#EF4136;" d="M139.768,224.723c0.299,0.225,0.45,0.376,0.45,0.45c0,0.151-0.244,0.882-0.731,2.193
				c-0.488,1.313-1.181,2.755-2.08,4.33c-0.9,1.574-2.006,2.999-3.318,4.273c-1.313,1.276-2.794,1.912-4.442,1.912
				c-1.2,0-2.381-0.506-3.542-1.518c-1.163-1.012-1.931-2.829-2.305-5.454c-0.45,0.75-0.995,1.538-1.631,2.361
				c-0.638,0.826-1.332,1.574-2.081,2.249c-0.75,0.675-1.574,1.237-2.474,1.687c-0.899,0.45-1.838,0.675-2.811,0.675
				c-1.425,0-2.775-0.692-4.048-2.081c-1.274-1.386-1.912-3.43-1.912-6.129c0-1.799,0.244-3.692,0.731-5.679
				c0.487-1.985,1.068-3.897,1.743-5.735c0.675-1.836,1.35-3.486,2.024-4.948c0.675-1.462,1.199-2.604,1.574-3.43
				c0.299-0.599,0.787-1.499,1.462-2.699c0.675-1.198,1.125-2.173,1.349-2.924c0.074,0,0.374,0.169,0.9,0.506
				c0.524,0.337,1.086,0.75,1.687,1.237c0.599,0.489,1.142,1.051,1.631,1.687c0.487,0.638,0.731,1.293,0.731,1.968
				c0,0.225-0.039,0.657-0.112,1.293c-0.076,0.638-0.3,1.144-0.675,1.518c-0.601,1.276-1.349,2.699-2.249,4.273
				c-0.899,1.574-1.762,3.205-2.586,4.892c-0.826,1.687-1.518,3.393-2.08,5.117c-0.562,1.725-0.843,3.337-0.843,4.835
				c0,0.975,0.13,1.762,0.394,2.362c0.262,0.601,0.805,0.9,1.631,0.9c1.049,0,2.305-0.599,3.767-1.799
				c1.462-1.198,2.829-3.298,4.104-6.297c0.299-2.174,0.787-4.347,1.462-6.522c0.675-2.173,1.367-4.104,2.08-5.791
				c0.712-1.687,1.367-3.054,1.968-4.105c0.599-1.049,0.973-1.574,1.124-1.574c0.523,0,1.142,0.132,1.855,0.394
				c0.712,0.263,1.443,0.581,2.193,0.956c0.824,0.376,1.687,0.826,2.586,1.349c-0.525,1.2-1.256,2.625-2.193,4.273
				c-0.938,1.65-1.856,3.393-2.755,5.229c-0.9,1.838-1.687,3.674-2.361,5.51c-0.675,1.838-1.012,3.581-1.012,5.229
				c0,0.826,0.093,1.5,0.281,2.024c0.186,0.525,0.619,0.787,1.293,0.787c0.973,0,2.267-0.768,3.88-2.305
				c1.611-1.536,3.166-4.029,4.667-7.478l0.225-0.113C139.468,224.611,139.617,224.649,139.768,224.723z"/>
			<path style="fill:#EF4136;" d="M154.161,235.631c-1.051-1.499-1.575-3.486-1.575-5.96c0-2.024,0.281-4.141,0.843-6.354
				c0.562-2.21,1.218-4.33,1.968-6.354c-0.675,1.275-1.406,2.662-2.193,4.161c-0.787,1.501-1.557,2.999-2.305,4.498
				c-0.75,1.501-1.462,2.962-2.137,4.386c-0.675,1.425-1.275,2.625-1.799,3.599c-0.45,0.9-0.843,1.613-1.181,2.137
				c-0.338,0.525-0.751,1.012-1.237,1.462c-0.489,0.45-1.032,0.712-1.631,0.787c-1.799,0.149-2.999-0.506-3.599-1.968
				c-0.599-1.462-0.9-3.317-0.9-5.566c0-2.474,0.337-5.004,1.012-7.59c0.675-2.586,1.423-4.929,2.249-7.028
				c0.824-2.098,1.611-3.804,2.361-5.117c0.748-1.311,1.198-1.968,1.349-1.968c0.524,0,1.142,0.132,1.856,0.394
				c0.712,0.263,1.443,0.581,2.193,0.956c0.824,0.376,1.687,0.826,2.587,1.349c-0.601,1.276-1.369,2.699-2.305,4.273
				c-0.938,1.574-1.856,3.261-2.755,5.06c-0.9,1.799-1.687,3.674-2.362,5.623c-0.675,1.951-1.012,3.862-1.012,5.735
				c2.474-4.423,4.61-8.058,6.41-10.908c1.799-2.848,3.318-5.134,4.555-6.86c1.237-1.724,2.249-3.036,3.036-3.936
				c0.787-0.9,1.423-1.648,1.912-2.249c0.487-0.599,0.843-1.161,1.068-1.687c0.225-0.524,0.449-1.311,0.675-2.361
				c0.074,0,0.394,0.169,0.956,0.506c0.562,0.337,1.142,0.787,1.743,1.349c0.599,0.562,1.161,1.163,1.687,1.799
				c0.524,0.638,0.787,1.293,0.787,1.968c0,0.225-0.056,0.638-0.169,1.237c-0.112,0.601-0.32,1.051-0.618,1.35
				c-0.601,1.275-1.35,2.699-2.249,4.273c-0.899,1.574-1.762,3.224-2.586,4.948c-0.826,1.725-1.537,3.449-2.137,5.173
				c-0.601,1.725-0.899,3.337-0.899,4.835c0,0.826,0.093,1.518,0.281,2.08c0.186,0.562,0.618,0.843,1.293,0.843
				c0.973,0,2.266-0.768,3.88-2.305c1.611-1.536,3.166-4.029,4.667-7.478l0.225-0.113c0.225,0,0.45,0.113,0.675,0.337l0.225,0.225
				c0,0.151-0.244,0.882-0.731,2.193c-0.488,1.313-1.181,2.755-2.081,4.33c-0.899,1.574-2.006,2.999-3.317,4.273
				c-1.313,1.276-2.794,1.912-4.442,1.912c-0.675,0-1.388-0.151-2.137-0.45C155.547,237.132,154.835,236.531,154.161,235.631z"/>
			<path style="fill:#EF4136;" d="M198.13,232.595c-0.301,0.45-0.694,0.975-1.181,1.574c-0.489,0.601-1.088,1.181-1.799,1.743
				c-0.714,0.562-1.518,1.031-2.418,1.406c-0.9,0.374-1.912,0.562-3.036,0.562c-0.826,0-1.819-0.243-2.98-0.731
				c-1.163-0.487-1.931-1.443-2.305-2.868c-0.601,0.601-1.613,1.388-3.036,2.362c-1.425,0.975-3.112,1.462-5.06,1.462
				c-1.65,0-3.036-0.394-4.161-1.181c-1.125-0.787-2.024-1.743-2.699-2.868c-0.675-1.124-1.163-2.342-1.462-3.655
				c-0.299-1.311-0.45-2.53-0.45-3.655c0-1.799,0.374-3.804,1.124-6.016c0.749-2.21,1.836-4.291,3.261-6.241
				c1.423-1.949,3.149-3.579,5.173-4.892c2.024-1.311,4.273-1.968,6.747-1.968c1.125,0,2.154,0.113,3.093,0.337
				c0.936,0.225,1.743,0.525,2.418,0.9c1.124-2.848,2.117-5.303,2.98-7.366c0.861-2.061,1.518-3.616,1.968-4.667l0.787-2.361
				c0.225-0.675,0.431-1.349,0.619-2.024c0.186-0.675,0.281-1.237,0.281-1.687c0.149,0.076,0.562,0.244,1.237,0.506
				c0.675,0.264,1.386,0.618,2.136,1.068c0.749,0.45,1.423,0.994,2.024,1.631c0.599,0.638,0.9,1.369,0.9,2.193
				c0,0.376-0.038,0.787-0.113,1.237c-0.076,0.45-0.225,0.975-0.45,1.574c-0.525,1.2-1.501,3.243-2.924,6.129
				c-1.425,2.887-2.906,6.016-4.442,9.39c-1.537,3.374-2.887,6.691-4.048,9.952c-1.163,3.261-1.743,5.83-1.743,7.703
				c0,1.574,0.636,2.361,1.912,2.361c1.274,0,2.848-0.768,4.723-2.305c1.873-1.536,3.56-4.029,5.06-7.478l0.225-0.113
				c0.299,0,0.562,0.113,0.787,0.337l0.225,0.225c0,0.301-0.244,1.163-0.731,2.587C200.284,229.184,199.403,230.795,198.13,232.595z
				 M183.96,232.257c-0.225-2.098-0.038-4.611,0.562-7.534c0.599-2.924,1.423-5.922,2.474-8.996
				c-1.05-0.824-2.231-1.311-3.542-1.462c-1.313-0.149-2.755,0.188-4.329,1.012c-1.951,1.2-3.693,2.98-5.229,5.341
				c-1.537,2.362-2.344,4.818-2.418,7.366c-0.3,1.501-0.151,2.811,0.45,3.936c0.599,1.124,1.423,1.987,2.474,2.586
				c1.049,0.601,2.174,0.919,3.374,0.956c1.198,0.039,2.21-0.318,3.036-1.068c0.749-0.374,1.367-0.731,1.855-1.068
				C183.154,232.988,183.584,232.633,183.96,232.257z"/>
			<path style="fill:#EF4136;" d="M226.016,224.723c0.374,0.225,0.562,0.376,0.562,0.45c0,0.151-0.244,0.9-0.731,2.249
				c-0.488,1.349-1.2,2.794-2.137,4.329c-0.938,1.537-2.063,2.943-3.373,4.217c-1.313,1.276-2.794,1.912-4.442,1.912
				c-1.425,0-2.755-0.692-3.992-2.081c-1.237-1.386-1.855-3.43-1.855-6.129c0-2.174,0.318-4.423,0.956-6.747
				c0.636-2.323,1.367-4.498,2.193-6.522c-0.826,0.151-1.631,0.244-2.418,0.281c-0.787,0.039-1.594,0.095-2.418,0.169
				c-0.301,0-0.582,0-0.843,0c-0.264,0-0.582-0.037-0.956-0.112c-1.051,1.725-2.006,3.337-2.868,4.835
				c-0.863,1.501-1.594,2.774-2.193,3.823c-0.75,1.276-1.423,2.437-2.024,3.486c-0.074,0-0.169-0.037-0.281-0.113
				c-0.113-0.074-0.206-0.112-0.281-0.112l-0.225-0.225c0.076-0.225,0.3-0.787,0.675-1.687c0.376-0.9,0.807-1.985,1.293-3.261
				c0.487-1.274,1.012-2.623,1.574-4.048c0.562-1.423,1.068-2.736,1.518-3.936c-1.276-0.824-2.136-1.817-2.586-2.98
				c-0.45-1.161-0.675-2.154-0.675-2.98c0-0.824,0.074-1.443,0.225-1.856c0.149-0.411,0.523-0.618,1.124-0.618
				c0.299,0,0.768,0.039,1.406,0.112c0.636,0.076,1.293,0.188,1.968,0.337c0.675,0.151,1.311,0.32,1.912,0.506
				c0.599,0.188,0.973,0.357,1.124,0.506c-0.225,0.525-0.376,0.843-0.45,0.956c-0.076,0.112-0.188,0.244-0.337,0.394
				c0,0.151,0.169,0.264,0.506,0.337c0.337,0.076,0.748,0.151,1.237,0.225c0.487,0.076,1.03,0.132,1.631,0.169
				c0.599,0.039,1.161,0.056,1.687,0.056h3.149c-0.076,0.151,0.018,0,0.281-0.45c0.262-0.45,0.58-1.012,0.956-1.687
				c0.374-0.675,0.731-1.406,1.068-2.193c0.337-0.787,0.58-1.518,0.731-2.193c0.074,0,0.374,0.169,0.9,0.506
				c0.524,0.337,1.105,0.77,1.743,1.293c0.636,0.525,1.218,1.107,1.743,1.743c0.523,0.638,0.787,1.293,0.787,1.968
				c0,0.3-0.019,0.582-0.056,0.843c-0.038,0.264-0.095,0.581-0.169,0.956c-0.601,1.2-1.369,2.625-2.305,4.273
				c-0.938,1.65-1.855,3.373-2.755,5.173c-0.9,1.799-1.669,3.618-2.305,5.454c-0.638,1.838-0.956,3.581-0.956,5.229
				c0,0.826,0.093,1.518,0.281,2.08c0.186,0.562,0.58,0.843,1.181,0.843c1.049,0,2.361-0.768,3.936-2.305
				c1.574-1.536,3.11-4.029,4.61-7.478l0.225-0.113C225.716,224.611,225.865,224.649,226.016,224.723z"/>
			<path style="fill:#EF4136;" d="M258.288,224.723c0.299,0.225,0.45,0.376,0.45,0.45c0-0.45-0.132-0.056-0.394,1.181
				c-0.264,1.237-0.787,2.718-1.574,4.442c-0.787,1.726-1.968,3.337-3.542,4.836c-1.574,1.501-3.637,2.249-6.185,2.249
				c-0.826,0-1.63-0.151-2.417-0.45c-0.787-0.299-1.518-0.861-2.193-1.687c-0.225,0.601-0.488,1.163-0.787,1.687
				c-0.301,0.524-0.562,1.049-0.787,1.574c0.973,0.149,2.098,0.318,3.373,0.506c1.274,0.186,2.623,0.337,4.048,0.45
				c1.423,0.113,2.924,0.093,4.498-0.056c1.574-0.151,3.149-0.525,4.723-1.125c0,0.824-0.151,1.668-0.45,2.53
				c-0.3,0.861-0.75,1.667-1.349,2.418c-0.601,0.748-1.332,1.386-2.193,1.912c-0.863,0.523-1.855,0.824-2.98,0.9
				c-2.55,0.149-4.723-0.019-6.522-0.506c-1.799-0.488-3.75-1.144-5.847-1.968c-1.501,2.623-3.112,4.442-4.835,5.454
				c-1.725,1.012-3.486,1.518-5.285,1.518c-0.3,0-0.826-0.039-1.574-0.112c-0.75-0.076-1.518-0.3-2.305-0.675
				c-0.787-0.376-1.499-0.956-2.137-1.743c-0.636-0.787-0.956-1.894-0.956-3.318c0-1.425,0.376-2.586,1.125-3.486
				c0.75-0.9,1.631-1.594,2.643-2.081c1.012-0.488,2.005-0.806,2.98-0.956c0.973-0.151,1.687-0.225,2.136-0.225
				c0.599,0,1.142,0.018,1.631,0.056c0.487,0.037,0.993,0.056,1.518,0.056c1.499,0,2.398-0.337,2.699-1.012
				c0.298-0.675,0.675-1.574,1.124-2.699c-0.826,0.826-1.762,1.537-2.811,2.137c-1.051,0.601-2.175,0.9-3.374,0.9
				c-1.349,0-2.662-0.692-3.936-2.081c-1.276-1.386-1.912-3.43-1.912-6.129c0-2.848,0.337-5.398,1.012-7.647
				c0.675-2.249,1.462-4.347,2.361-6.297c0.9-1.949,1.817-3.841,2.755-5.679c0.936-1.836,1.704-3.767,2.305-5.791
				c0.074,0,0.411,0.169,1.012,0.506c0.599,0.337,1.198,0.77,1.799,1.293c0.599,0.525,1.161,1.107,1.687,1.743
				c0.523,0.638,0.787,1.293,0.787,1.968c0,1.051-0.338,2.175-1.012,3.374c-0.675,1.276-1.425,2.681-2.249,4.217
				c-0.826,1.537-1.631,3.112-2.418,4.723c-0.787,1.613-1.444,3.244-1.968,4.892c-0.525,1.65-0.787,3.188-0.787,4.611
				c0,0.975,0.13,1.782,0.394,2.418c0.262,0.638,0.843,0.956,1.743,0.956c1.274,0,2.811-0.974,4.611-2.924
				c1.799-1.949,3.447-5.322,4.948-10.121c1.35-4.498,2.68-7.909,3.992-10.233c1.311-2.323,2.042-3.973,2.193-4.948
				c0.074,0,0.394,0.151,0.956,0.45c0.562,0.3,1.161,0.714,1.799,1.237c0.636,0.525,1.218,1.088,1.743,1.687
				c0.524,0.601,0.787,1.237,0.787,1.912c-0.076,0.376-0.169,0.863-0.281,1.462c-0.112,0.601-0.357,1.237-0.731,1.912
				c-0.675,1.2-1.388,2.493-2.136,3.88c-0.751,1.388-1.462,2.794-2.137,4.217c-0.675,1.425-1.22,2.831-1.631,4.217
				c-0.413,1.388-0.618,2.718-0.618,3.992c0,0.9,0.112,1.594,0.337,2.08c0.225,0.489,0.748,0.731,1.574,0.731
				c1.274,0,2.868-0.768,4.779-2.305c1.912-1.536,3.616-4.029,5.117-7.478l0.225-0.113
				C257.988,224.611,258.137,224.649,258.288,224.723z M233.324,243.615c0.225-0.076,0.636-0.112,1.237-0.112
				c0.225,0,0.45,0.018,0.675,0.056c0.225,0.037,0.411,0.056,0.562,0.056h0.562l-2.811-0.675c-0.826-0.151-1.669-0.337-2.53-0.562
				c-0.863-0.225-1.706-0.337-2.53-0.337c-1.276,0-2.456,0.281-3.542,0.843c-1.086,0.562-1.631,1.518-1.631,2.868
				c0,0.973,0.394,1.687,1.181,2.137c0.787,0.45,1.631,0.675,2.53,0.675c0.973,0,2.005-0.357,3.092-1.068
				C231.205,246.781,232.273,245.488,233.324,243.615z"/>
		</g>
	</g>
	<g>
		<path style="fill:#2B3990;" d="M100.441,251.069h-4.763v12.662h-1.901v-12.662h-4.719v-1.704h11.383V251.069z"/>
		<path style="fill:#2B3990;" d="M108.842,262.671c-0.961,0.874-2.181,1.311-3.66,1.311c-0.495,0-0.958-0.071-1.387-0.213
			c-0.43-0.142-0.803-0.344-1.12-0.606c-0.317-0.262-0.566-0.579-0.748-0.95c-0.182-0.371-0.273-0.783-0.273-1.234
			c0-2.432,2.094-3.649,6.281-3.649h0.907c0-0.444-0.015-0.841-0.044-1.191c-0.029-0.35-0.12-0.643-0.273-0.879
			c-0.153-0.237-0.399-0.417-0.737-0.541c-0.339-0.124-0.821-0.186-1.447-0.186c-1.639,0-2.487,0.59-2.546,1.77h-1.857
			c0.124-2.148,1.628-3.223,4.512-3.223c0.656,0,1.245,0.057,1.77,0.17c0.524,0.113,0.967,0.319,1.327,0.617
			c0.36,0.299,0.641,0.703,0.841,1.213c0.2,0.51,0.3,1.154,0.3,1.934v6.719h-1.846V262.671z M108.842,260.999v-2.305h-1.278
			c-2.688,0-4.031,0.728-4.031,2.185c0,0.532,0.199,0.94,0.595,1.224c0.397,0.284,0.927,0.426,1.59,0.426
			c0.619,0,1.211-0.137,1.775-0.41C108.057,261.846,108.507,261.473,108.842,260.999z"/>
		<path style="fill:#2B3990;" d="M121.864,262.933c0,3.343-1.511,5.014-4.534,5.014c-0.655,0-1.244-0.071-1.764-0.213
			c-0.521-0.142-0.963-0.349-1.327-0.623c-0.364-0.273-0.646-0.605-0.847-0.994c-0.2-0.39-0.3-0.832-0.3-1.327h1.923
			c0,1.144,0.757,1.715,2.272,1.715c0.437,0,0.825-0.055,1.163-0.164c0.339-0.109,0.624-0.297,0.858-0.563
			c0.233-0.266,0.41-0.625,0.53-1.076c0.12-0.452,0.18-1.02,0.18-1.704v-0.502c-0.845,0.99-1.835,1.486-2.971,1.486
			c-0.692,0-1.305-0.129-1.841-0.388c-0.535-0.258-0.983-0.619-1.344-1.081c-0.36-0.462-0.636-1.027-0.825-1.693
			c-0.189-0.667-0.284-1.4-0.284-2.201c0-0.859,0.113-1.631,0.339-2.316c0.226-0.685,0.535-1.264,0.929-1.737
			c0.393-0.473,0.858-0.839,1.393-1.098c0.535-0.258,1.112-0.388,1.731-0.388c1.121,0,2.079,0.35,2.873,1.049v-0.798h1.846V262.933z
			 M120.018,260.726v-4.927c-0.823-0.845-1.741-1.267-2.753-1.267c-0.786,0-1.417,0.337-1.89,1.01
			c-0.474,0.674-0.71,1.699-0.71,3.075c0,1.282,0.224,2.254,0.672,2.917c0.448,0.663,1.069,0.994,1.862,0.994
			C118.233,262.529,119.173,261.928,120.018,260.726z"/>
		<path style="fill:#2B3990;" d="M126.441,263.73h-1.846v-14.366h1.846V263.73z"/>
		<path style="fill:#2B3990;" d="M131.018,251.364h-1.846v-1.999h1.846V251.364z M131.018,263.73h-1.846v-10.4h1.846V263.73z"/>
		<path style="fill:#2B3990;" d="M135.596,254.652c0.918-1.049,1.952-1.573,3.103-1.573c2.345,0,3.518,1.282,3.518,3.845v6.806
			h-1.857v-6.719c0-0.859-0.151-1.473-0.454-1.841c-0.302-0.368-0.792-0.552-1.469-0.552c-0.947,0-1.894,0.55-2.84,1.65v7.461
			h-1.846v-10.4h1.846V254.652z"/>
		<path style="fill:#2B3990;" d="M149.339,263.982c-0.75,0-1.438-0.122-2.064-0.366c-0.627-0.244-1.162-0.601-1.606-1.071
			c-0.444-0.47-0.79-1.042-1.038-1.715c-0.248-0.673-0.372-1.44-0.372-2.299c0-0.845,0.118-1.606,0.355-2.283
			c0.237-0.677,0.572-1.249,1.005-1.715c0.433-0.466,0.948-0.825,1.546-1.076c0.597-0.251,1.257-0.377,1.977-0.377
			c0.743,0,1.417,0.124,2.021,0.372c0.604,0.248,1.12,0.606,1.546,1.076c0.426,0.47,0.754,1.042,0.983,1.715
			c0.229,0.674,0.344,1.436,0.344,2.289v0.448h-7.844c0.036,0.605,0.142,1.129,0.317,1.573c0.175,0.444,0.4,0.812,0.677,1.103
			c0.277,0.291,0.599,0.51,0.967,0.655c0.368,0.146,0.763,0.219,1.185,0.219c0.306,0,0.61-0.042,0.912-0.126
			c0.302-0.084,0.575-0.207,0.819-0.371c0.244-0.164,0.443-0.362,0.596-0.595c0.153-0.233,0.233-0.503,0.24-0.808h1.934
			c-0.08,0.532-0.248,1.009-0.503,1.431c-0.255,0.423-0.581,0.774-0.978,1.054c-0.397,0.28-0.854,0.495-1.371,0.645
			C150.472,263.907,149.922,263.982,149.339,263.982z M152.07,257.525c-0.146-0.99-0.479-1.737-1-2.24
			c-0.521-0.503-1.163-0.754-1.928-0.754c-0.743,0-1.382,0.246-1.917,0.737c-0.536,0.492-0.872,1.244-1.011,2.256H152.07z"/>
		<path style="fill:#2B3990;" d="M180.998,263.73h-1.912v-6.773h-7.473v6.773h-1.901v-14.366h1.901v5.878h7.473v-5.878h1.912V263.73
			z"/>
		<path style="fill:#2B3990;" d="M188.383,263.982c-0.75,0-1.438-0.122-2.065-0.366c-0.627-0.244-1.162-0.601-1.606-1.071
			c-0.444-0.47-0.79-1.042-1.038-1.715c-0.248-0.673-0.372-1.44-0.372-2.299c0-0.845,0.118-1.606,0.355-2.283
			c0.237-0.677,0.572-1.249,1.005-1.715c0.433-0.466,0.948-0.825,1.546-1.076c0.597-0.251,1.257-0.377,1.977-0.377
			c0.743,0,1.417,0.124,2.021,0.372c0.604,0.248,1.12,0.606,1.546,1.076s0.754,1.042,0.983,1.715
			c0.229,0.674,0.344,1.436,0.344,2.289v0.448h-7.844c0.036,0.605,0.142,1.129,0.317,1.573c0.175,0.444,0.4,0.812,0.677,1.103
			c0.277,0.291,0.599,0.51,0.967,0.655c0.368,0.146,0.763,0.219,1.185,0.219c0.306,0,0.61-0.042,0.912-0.126
			c0.302-0.084,0.575-0.207,0.819-0.371c0.244-0.164,0.443-0.362,0.596-0.595c0.153-0.233,0.233-0.503,0.24-0.808h1.934
			c-0.08,0.532-0.248,1.009-0.503,1.431c-0.255,0.423-0.581,0.774-0.978,1.054c-0.397,0.28-0.854,0.495-1.371,0.645
			C189.516,263.907,188.966,263.982,188.383,263.982z M191.115,257.525c-0.146-0.99-0.479-1.737-1-2.24
			c-0.521-0.503-1.163-0.754-1.928-0.754c-0.743,0-1.382,0.246-1.917,0.737c-0.535,0.492-0.872,1.244-1.011,2.256H191.115z"/>
		<path style="fill:#2B3990;" d="M200.554,255.023c-0.27-0.087-0.645-0.131-1.125-0.131c-0.933,0-1.744,0.495-2.436,1.486v7.352
			h-1.846v-10.4h1.846v1.442c0.779-1.129,1.686-1.693,2.72-1.693c0.262,0,0.543,0.029,0.841,0.088V255.023z"/>
		<path style="fill:#2B3990;" d="M206.245,263.982c-0.75,0-1.438-0.122-2.064-0.366c-0.627-0.244-1.162-0.601-1.606-1.071
			c-0.444-0.47-0.79-1.042-1.038-1.715c-0.248-0.673-0.371-1.44-0.371-2.299c0-0.845,0.118-1.606,0.355-2.283
			c0.237-0.677,0.572-1.249,1.005-1.715c0.433-0.466,0.948-0.825,1.546-1.076c0.597-0.251,1.257-0.377,1.977-0.377
			c0.743,0,1.417,0.124,2.021,0.372c0.604,0.248,1.12,0.606,1.546,1.076s0.754,1.042,0.983,1.715
			c0.229,0.674,0.344,1.436,0.344,2.289v0.448h-7.844c0.036,0.605,0.142,1.129,0.317,1.573c0.175,0.444,0.4,0.812,0.677,1.103
			c0.277,0.291,0.599,0.51,0.967,0.655c0.368,0.146,0.763,0.219,1.185,0.219c0.306,0,0.61-0.042,0.912-0.126
			c0.302-0.084,0.575-0.207,0.819-0.371c0.244-0.164,0.443-0.362,0.596-0.595c0.153-0.233,0.233-0.503,0.24-0.808h1.934
			c-0.08,0.532-0.248,1.009-0.503,1.431c-0.255,0.423-0.581,0.774-0.978,1.054c-0.397,0.28-0.854,0.495-1.371,0.645
			C207.378,263.907,206.828,263.982,206.245,263.982z M208.976,257.525c-0.146-0.99-0.479-1.737-1-2.24
			c-0.521-0.503-1.163-0.754-1.928-0.754c-0.743,0-1.382,0.246-1.917,0.737c-0.536,0.492-0.872,1.244-1.011,2.256H208.976z"/>
	</g>
</g>
</svg>
